<?xml version="1.0"?>
<svg xmlns="http://www.w3.org/2000/svg" xmlns:xlink="http://www.w3.org/1999/xlink" xmlns:svgjs="http://svgjs.com/svgjs" version="1.1" width="512" height="512" x="0" y="0" viewBox="0 0 512 512" style="enable-background:new 0 0 512 512" xml:space="preserve" class=""><g><g xmlns="http://www.w3.org/2000/svg"><path d="m346 422h-180c-8.4 0-15 6.6-15 15s6.6 15 15 15h15v15c0 24.9 20.1 45 45 45h60c24.9 0 45-20.1 45-45v-15h15c8.4 0 15-6.6 15-15s-6.6-15-15-15z" fill="#4cd62b" data-original="#000000" style="" class=""/><path d="m421 165c0-90.9-74.1-165-165-165s-165 74.1-165 165c0 50.1 24.3 82.5 48 114 18.9 24.9 36.6 48.9 41.1 81h-14.1c-8.4 0-15 6.6-15 15s6.6 15 15 15h180c8.4 0 15-6.6 15-15s-6.6-15-15-15h-14.1c4.5-32.1 22.2-56.1 41.1-81 23.7-31.5 48-63.9 48-114zm-194.561 56.367 30-120c2.021-8.042 10.02-13.008 18.193-10.913 8.057 2.007 12.92 10.151 10.928 18.179l-30 120c-2.005 8.056-10.171 12.919-18.193 10.913-8.056-2.007-12.92-10.151-10.928-18.179zm-71.044-45.762c-5.859-5.859-5.859-15.352 0-21.211l30-30c5.859-5.859 15.352-5.859 21.211 0s5.859 15.352 0 21.211l-19.395 19.395 19.395 19.395c5.859 5.859 5.859 15.352 0 21.211s-15.351 5.859-21.211 0zm201.21-21.21c5.859 5.859 5.859 15.352 0 21.211l-30 30c-5.859 5.859-15.351 5.859-21.211 0-5.859-5.859-5.859-15.352 0-21.211l19.395-19.395-19.395-19.395c-5.859-5.859-5.859-15.352 0-21.211s15.352-5.859 21.211 0z" fill="#4cd62b" data-original="#000000" style="" class=""/></g></g></svg>
